<svg width="50" height="20" viewBox="0 0 50 20" fill="none" xmlns="http://www.w3.org/2000/svg">
<path d="M0 0H50V20H0V0Z" fill="#FF4830"/>
<path d="M11.728 4.624C12.496 4.624 13.1573 4.72533 13.712 4.928C14.2667 5.13067 14.7893 5.43467 15.28 5.84L14 7.392C13.328 6.848 12.592 6.576 11.792 6.576C11.0347 6.576 10.4213 6.896 9.952 7.536C9.49333 8.176 9.264 9.14133 9.264 10.432C9.264 11.7227 9.49333 12.6827 9.952 13.312C10.4107 13.9307 11.04 14.24 11.84 14.24C12.3307 14.24 12.752 14.1547 13.104 13.984C13.456 13.8133 13.8347 13.568 14.24 13.248L15.424 14.768C14.4427 15.7707 13.2 16.272 11.696 16.272C10.6827 16.272 9.78667 16.048 9.008 15.6C8.24 15.152 7.63733 14.4907 7.2 13.616C6.76267 12.7307 6.544 11.6693 6.544 10.432C6.544 9.22667 6.768 8.18667 7.216 7.312C7.664 6.43733 8.28267 5.77067 9.072 5.312C9.86133 4.85333 10.7467 4.624 11.728 4.624ZM16.5378 16V4.912H19.1618V16H16.5378ZM22.2658 4.912H25.0178L21.8818 9.888L25.3218 16H22.2978L19.2418 10.08L22.2658 4.912ZM28.3395 13.6L27.7635 16H25.0115L28.4035 4.912H31.5875L34.9795 16H32.1635L31.5875 13.6H28.3395ZM31.1555 11.712L29.9555 6.8L28.7555 11.712H31.1555ZM37.4533 7.088C37.5599 7.89867 37.6506 8.68267 37.7253 9.44C37.7999 10.1867 37.8373 10.9813 37.8373 11.824V16H35.6133V4.912H38.8932L41.7093 13.792C41.4533 12.1493 41.3253 10.6027 41.3253 9.152V4.912H43.5493V16H40.3653L37.4533 7.088Z" fill="#FFEDED"/>
</svg>
