<svg width="105" height="20" viewBox="0 0 105 20" fill="none" xmlns="http://www.w3.org/2000/svg">
<path d="M0 6C0 2.68629 2.68629 0 6 0H105V20H6C2.68629 20 0 17.3137 0 14V6Z" fill="#2185D0"/>
<path d="M28.728 4.624C29.496 4.624 30.1573 4.72533 30.712 4.928C31.2667 5.13067 31.7893 5.43467 32.28 5.84L31 7.392C30.328 6.848 29.592 6.576 28.792 6.576C28.0347 6.576 27.4213 6.896 26.952 7.536C26.4933 8.176 26.264 9.14133 26.264 10.432C26.264 11.7227 26.4933 12.6827 26.952 13.312C27.4107 13.9307 28.04 14.24 28.84 14.24C29.3307 14.24 29.752 14.1547 30.104 13.984C30.456 13.8133 30.8347 13.568 31.24 13.248L32.424 14.768C31.4427 15.7707 30.2 16.272 28.696 16.272C27.6827 16.272 26.7867 16.048 26.008 15.6C25.24 15.152 24.6373 14.4907 24.2 13.616C23.7627 12.7307 23.544 11.6693 23.544 10.432C23.544 9.22667 23.768 8.18667 24.216 7.312C24.664 6.43733 25.2827 5.77067 26.072 5.312C26.8613 4.85333 27.7467 4.624 28.728 4.624ZM37.3938 7.216C38.6844 7.216 39.6924 7.62667 40.4178 8.448C41.1538 9.25867 41.5218 10.352 41.5218 11.728C41.5218 13.1573 41.1591 14.272 40.4338 15.072C39.7084 15.872 38.6951 16.272 37.3938 16.272C36.0924 16.272 35.0791 15.8773 34.3538 15.088C33.6284 14.288 33.2658 13.1733 33.2658 11.744C33.2658 10.8373 33.4258 10.048 33.7458 9.376C34.0764 8.69333 34.5511 8.16533 35.1698 7.792C35.7991 7.408 36.5404 7.216 37.3938 7.216ZM37.3938 9.088C36.8711 9.088 36.4871 9.30133 36.2418 9.728C35.9964 10.144 35.8738 10.816 35.8738 11.744C35.8738 12.6827 35.9964 13.3653 36.2418 13.792C36.4871 14.208 36.8711 14.416 37.3938 14.416C37.9164 14.416 38.3004 14.2027 38.5458 13.776C38.7911 13.3493 38.9138 12.6667 38.9138 11.728C38.9138 10.8107 38.7911 10.144 38.5458 9.728C38.3004 9.30133 37.9164 9.088 37.3938 9.088ZM50.6675 4.128V16H48.4275L48.2995 15.072C48.0435 15.4347 47.7182 15.728 47.3235 15.952C46.9288 16.1653 46.4702 16.272 45.9475 16.272C44.9235 16.272 44.1448 15.8667 43.6115 15.056C43.0888 14.2453 42.8275 13.136 42.8275 11.728C42.8275 10.8533 42.9662 10.0747 43.2435 9.392C43.5208 8.70933 43.9155 8.176 44.4275 7.792C44.9395 7.408 45.5368 7.216 46.2195 7.216C46.9875 7.216 47.6275 7.48267 48.1395 8.016V3.856L50.6675 4.128ZM46.8915 9.072C46.4328 9.072 46.0755 9.29067 45.8195 9.728C45.5635 10.1547 45.4355 10.8267 45.4355 11.744C45.4355 12.7253 45.5475 13.4187 45.7715 13.824C46.0062 14.2187 46.3315 14.416 46.7475 14.416C47.2808 14.416 47.7448 14.0907 48.1395 13.44V9.776C47.9582 9.54133 47.7662 9.36533 47.5635 9.248C47.3715 9.13067 47.1475 9.072 46.8915 9.072ZM55.0933 12.496C55.2533 13.7867 55.9359 14.432 57.1413 14.432C57.8666 14.432 58.5919 14.1973 59.3173 13.728L60.3253 15.104C59.9093 15.4667 59.4133 15.7547 58.8373 15.968C58.2613 16.1707 57.6266 16.272 56.9333 16.272C55.9839 16.272 55.1786 16.0853 54.5173 15.712C53.8559 15.328 53.3546 14.8 53.0133 14.128C52.6826 13.4453 52.5173 12.656 52.5173 11.76C52.5173 10.9067 52.6773 10.1387 52.9973 9.456C53.3279 8.76267 53.8026 8.21867 54.4213 7.824C55.0506 7.41867 55.7973 7.216 56.6613 7.216C57.4719 7.216 58.1759 7.392 58.7733 7.744C59.3706 8.08533 59.8293 8.58667 60.1493 9.248C60.4799 9.89867 60.6453 10.6773 60.6453 11.584C60.6453 11.936 60.6293 12.24 60.5972 12.496H55.0933ZM56.6613 8.912C56.2026 8.912 55.8346 9.08267 55.5573 9.424C55.2799 9.75467 55.1146 10.2667 55.0613 10.96H58.1813C58.1599 9.59467 57.6533 8.912 56.6613 8.912ZM65.023 8.368C65.2897 8.00533 65.6097 7.72267 65.983 7.52C66.367 7.31733 66.7723 7.216 67.199 7.216C68.255 7.216 69.039 7.61067 69.551 8.4C70.0737 9.18933 70.335 10.2987 70.335 11.728C70.335 12.6133 70.2017 13.3973 69.935 14.08C69.6683 14.7627 69.279 15.3013 68.767 15.696C68.255 16.08 67.6417 16.272 66.927 16.272C66.5003 16.272 66.1057 16.1813 65.743 16C65.3803 15.8187 65.0763 15.5627 64.831 15.232L64.735 16H62.495V4.128L65.023 3.856V8.368ZM66.271 14.432C67.2417 14.432 67.727 13.5413 67.727 11.76C67.727 10.768 67.615 10.0747 67.391 9.68C67.167 9.28533 66.8363 9.088 66.399 9.088C65.8763 9.088 65.4177 9.41867 65.023 10.08V13.664C65.3537 14.176 65.7697 14.432 66.271 14.432ZM74.2808 12.496C74.4408 13.7867 75.1234 14.432 76.3288 14.432C77.0541 14.432 77.7794 14.1973 78.5048 13.728L79.5128 15.104C79.0968 15.4667 78.6008 15.7547 78.0248 15.968C77.4488 16.1707 76.8141 16.272 76.1208 16.272C75.1714 16.272 74.3661 16.0853 73.7048 15.712C73.0434 15.328 72.5421 14.8 72.2008 14.128C71.8701 13.4453 71.7048 12.656 71.7048 11.76C71.7048 10.9067 71.8648 10.1387 72.1848 9.456C72.5154 8.76267 72.9901 8.21867 73.6088 7.824C74.2381 7.41867 74.9848 7.216 75.8488 7.216C76.6594 7.216 77.3634 7.392 77.9608 7.744C78.5581 8.08533 79.0168 8.58667 79.3368 9.248C79.6674 9.89867 79.8328 10.6773 79.8328 11.584C79.8328 11.936 79.8168 12.24 79.7847 12.496H74.2808ZM75.8488 8.912C75.3901 8.912 75.0221 9.08267 74.7448 9.424C74.4674 9.75467 74.3021 10.2667 74.2488 10.96H77.3688C77.3474 9.59467 76.8408 8.912 75.8488 8.912ZM88.1625 7.248C88.6745 7.248 89.1438 7.33333 89.5705 7.504L89.1065 11.056H87.5065V9.488C87.0372 9.57333 86.6212 9.82933 86.2585 10.256C85.8958 10.6827 85.6132 11.2213 85.4105 11.872V14.304H87.0905V16H81.7625V14.304H82.8825V9.184H81.7625V7.504H84.8185L85.2665 9.408C85.5758 8.68267 85.9652 8.144 86.4345 7.792C86.9038 7.42933 87.4798 7.248 88.1625 7.248ZM99.4043 8C98.8496 8.224 98.0336 8.336 96.9563 8.336C97.5109 8.58133 97.9216 8.87467 98.1883 9.216C98.4656 9.55733 98.6042 9.99467 98.6042 10.528C98.6042 11.072 98.4549 11.5627 98.1562 12C97.8576 12.4267 97.4363 12.7627 96.8923 13.008C96.3483 13.2533 95.7189 13.376 95.0043 13.376C94.6523 13.376 94.3216 13.344 94.0123 13.28C93.9269 13.3227 93.8576 13.392 93.8043 13.488C93.7616 13.5733 93.7403 13.664 93.7403 13.76C93.7403 13.92 93.7989 14.048 93.9163 14.144C94.0443 14.2293 94.2949 14.272 94.6683 14.272H96.0763C96.7163 14.272 97.2816 14.3787 97.7723 14.592C98.2629 14.8053 98.6416 15.0987 98.9083 15.472C99.1749 15.8453 99.3083 16.2667 99.3083 16.736C99.3083 17.6213 98.9189 18.3093 98.1403 18.8C97.3723 19.3013 96.2469 19.552 94.7643 19.552C93.7083 19.552 92.8763 19.44 92.2682 19.216C91.6709 19.0027 91.2496 18.6987 91.0043 18.304C90.7696 17.9093 90.6523 17.4133 90.6523 16.816H92.8923C92.8923 17.0827 92.9403 17.2907 93.0363 17.44C93.1429 17.5893 93.3349 17.7013 93.6123 17.776C93.8896 17.8507 94.2949 17.888 94.8283 17.888C95.5749 17.888 96.0869 17.8027 96.3643 17.632C96.6523 17.4613 96.7963 17.2213 96.7963 16.912C96.7963 16.656 96.6896 16.448 96.4763 16.288C96.2736 16.1387 95.9696 16.064 95.5643 16.064H94.2203C93.3456 16.064 92.6896 15.9093 92.2523 15.6C91.8149 15.28 91.5963 14.8747 91.5963 14.384C91.5963 14.064 91.6763 13.7653 91.8363 13.488C92.0069 13.2 92.2416 12.96 92.5403 12.768C92.0069 12.48 91.6229 12.144 91.3883 11.76C91.1536 11.3653 91.0363 10.8907 91.0363 10.336C91.0363 9.70667 91.1963 9.15733 91.5163 8.688C91.8363 8.21867 92.2843 7.86133 92.8603 7.616C93.4363 7.36 94.0923 7.232 94.8283 7.232C95.6816 7.25333 96.4069 7.17333 97.0043 6.992C97.6016 6.8 98.2096 6.51733 98.8283 6.144L99.4043 8ZM94.8923 8.88C94.4869 8.88 94.1669 9.008 93.9323 9.264C93.7083 9.52 93.5963 9.86667 93.5963 10.304C93.5963 10.7627 93.7136 11.12 93.9483 11.376C94.1829 11.632 94.4976 11.76 94.8923 11.76C95.3083 11.76 95.6283 11.6373 95.8523 11.392C96.0763 11.136 96.1883 10.7627 96.1883 10.272C96.1883 9.344 95.7563 8.88 94.8923 8.88Z" fill="white"/>
<g clip-path="url(#clip0_170_32)">
<path d="M12.1194 6.66321C12.1105 6.66329 12.1017 6.66483 12.0937 6.66772C12.0856 6.67061 12.0786 6.67479 12.073 6.67995C12.0673 6.68511 12.0632 6.69114 12.061 6.69759C12.0588 6.70405 12.0584 6.71077 12.0601 6.71731L14.7568 16.8251C16.0614 16.2632 17.1644 15.3177 17.9189 14.1142L12.1727 6.68564C12.1672 6.67873 12.1595 6.67303 12.1501 6.66909C12.1408 6.66515 12.1301 6.66312 12.1194 6.66321Z" fill="url(#paint0_linear_170_32)"/>
<path d="M11.9879 3.39597C8.12178 3.39597 4.98779 6.52996 4.98779 10.396C4.98779 11.711 5.35816 12.9996 6.05673 14.1138L11.8931 6.56863C11.935 6.51413 12.0406 6.51413 12.0824 6.56863L17.9188 14.1141C18.6174 12.9998 18.988 11.7112 18.988 10.396C18.988 6.52996 15.854 3.39597 11.9879 3.39597Z" fill="white"/>
</g>
<defs>
<linearGradient id="paint0_linear_170_32" x1="12.1194" y1="6.66321" x2="16.6198" y2="15.6445" gradientUnits="userSpaceOnUse">
<stop stop-color="white" stop-opacity="0"/>
<stop offset="0.495173" stop-color="white" stop-opacity="0.3"/>
<stop offset="1" stop-color="white" stop-opacity="0.3"/>
</linearGradient>
<clipPath id="clip0_170_32">
<rect width="14" height="14" fill="white" transform="translate(5 3)"/>
</clipPath>
</defs>
</svg>
