<svg width="85" height="20" viewBox="0 0 85 20" fill="none" xmlns="http://www.w3.org/2000/svg">
<path d="M0 6C0 2.68629 2.68629 0 6 0H85V20H6C2.68629 20 0 17.3137 0 14V6Z" fill="#D0D0D5"/>
<path d="M12 3C8.13235 3 5 6.21153 5 10.1769C5 13.3529 7.00383 16.0352 9.78617 16.9857C10.1362 17.0487 10.267 16.8334 10.267 16.6449C10.267 16.4746 10.2585 15.9098 10.2585 15.3082C8.5 15.6402 8.0453 14.8688 7.9053 14.4656C7.82617 14.2591 7.4853 13.6219 7.18704 13.4515C6.94235 13.3167 6.59235 12.9847 7.17852 12.976C7.73 12.9672 8.12383 13.4964 8.2553 13.7117C8.8853 14.7977 9.89148 14.4919 10.2938 14.3034C10.3547 13.8372 10.5385 13.5233 10.74 13.3435C9.18235 13.1644 7.5553 12.5453 7.5553 9.8C7.5553 9.0199 7.82617 8.37397 8.27235 7.87159C8.20235 7.69185 7.95765 6.95606 8.34235 5.96938C8.34235 5.96938 8.92852 5.78091 10.2677 6.70518C10.8277 6.54354 11.4223 6.46303 12.0177 6.46303C12.6123 6.46303 13.2077 6.54416 13.7677 6.70518C15.1068 5.77217 15.6923 5.96938 15.6923 5.96938C16.0777 6.95606 15.8323 7.69185 15.7623 7.87159C16.2085 8.37397 16.48 9.01054 16.48 9.8C16.48 12.5541 14.8438 13.1638 13.2862 13.3435C13.54 13.5682 13.7585 13.9988 13.7585 14.6716C13.7585 15.6314 13.75 16.4028 13.75 16.6449C13.75 16.8334 13.8815 17.0581 14.2309 16.9863C16.9968 16.0352 19 13.3435 19 10.1769C19 6.21153 15.8677 3 12 3Z" fill="#1F1E26"/>
<path d="M28.216 16.272C26.6373 16.272 25.432 15.776 24.6 14.784C23.7787 13.7813 23.368 12.3307 23.368 10.432C23.368 9.20533 23.592 8.15467 24.04 7.28C24.488 6.40533 25.1013 5.744 25.88 5.296C26.6693 4.848 27.5493 4.624 28.52 4.624C29.2773 4.624 29.9333 4.74667 30.488 4.992C31.0533 5.22667 31.5707 5.56267 32.04 6L30.664 7.424C30.312 7.11467 29.9813 6.89067 29.672 6.752C29.3733 6.61333 29.032 6.544 28.648 6.544C27.848 6.544 27.2187 6.864 26.76 7.504C26.3013 8.13333 26.072 9.11467 26.072 10.448C26.072 11.8773 26.2427 12.8853 26.584 13.472C26.9253 14.0587 27.4747 14.352 28.232 14.352C28.7333 14.352 29.192 14.24 29.608 14.016V11.472H28.216L27.96 9.648H32.088V15.152C30.872 15.8987 29.5813 16.272 28.216 16.272ZM37.3778 3.056C37.8151 3.056 38.1724 3.19467 38.4498 3.472C38.7271 3.73867 38.8658 4.07467 38.8658 4.48C38.8658 4.896 38.7271 5.23733 38.4498 5.504C38.1724 5.77067 37.8151 5.904 37.3778 5.904C36.9404 5.904 36.5778 5.77067 36.2898 5.504C36.0124 5.22667 35.8738 4.88533 35.8738 4.48C35.8738 4.07467 36.0124 3.73867 36.2898 3.472C36.5778 3.19467 36.9404 3.056 37.3778 3.056ZM38.8978 14.272H41.0738V16H33.9698V14.272H36.3698V9.232H34.0498V7.504H38.8978V14.272ZM50.9555 15.504C50.1555 16.016 49.2275 16.272 48.1715 16.272C47.0835 16.272 46.2622 15.9947 45.7075 15.44C45.1635 14.8853 44.8915 14.1067 44.8915 13.104V9.248H43.1155V7.504H44.8915V5.664L47.4195 5.36V7.504H50.1555L49.8995 9.248H47.4195V13.104C47.4195 13.52 47.5155 13.8187 47.7075 14C47.8995 14.1813 48.2088 14.272 48.6355 14.272C49.1688 14.272 49.6648 14.144 50.1235 13.888L50.9555 15.504ZM57.9253 11.328H55.2373V16H52.6133V4.912H55.2373V9.168H57.9253V4.912H60.5493V16H57.9253V11.328ZM65.023 13.312C65.023 13.7067 65.0923 13.9893 65.231 14.16C65.3803 14.32 65.599 14.4 65.887 14.4C66.143 14.4 66.4043 14.32 66.671 14.16C66.9377 13.9893 67.1563 13.76 67.327 13.472V7.504H69.855V16H67.647L67.535 15.008C67.2577 15.4133 66.8843 15.728 66.415 15.952C65.9457 16.1653 65.4497 16.272 64.927 16.272C64.127 16.272 63.519 16.0427 63.103 15.584C62.6977 15.1147 62.495 14.464 62.495 13.632V7.504H65.023V13.312ZM74.6168 8.368C74.8834 8.00533 75.2034 7.72267 75.5768 7.52C75.9608 7.31733 76.3661 7.216 76.7928 7.216C77.8488 7.216 78.6328 7.61067 79.1448 8.4C79.6674 9.18933 79.9288 10.2987 79.9288 11.728C79.9288 12.6133 79.7954 13.3973 79.5288 14.08C79.2621 14.7627 78.8728 15.3013 78.3608 15.696C77.8488 16.08 77.2354 16.272 76.5208 16.272C76.0941 16.272 75.6994 16.1813 75.3368 16C74.9741 15.8187 74.6701 15.5627 74.4248 15.232L74.3288 16H72.0888V4.128L74.6168 3.856V8.368ZM75.8648 14.432C76.8354 14.432 77.3208 13.5413 77.3208 11.76C77.3208 10.768 77.2088 10.0747 76.9848 9.68C76.7608 9.28533 76.4301 9.088 75.9928 9.088C75.4701 9.088 75.0114 9.41867 74.6168 10.08V13.664C74.9474 14.176 75.3634 14.432 75.8648 14.432Z" fill="#1F1E26"/>
</svg>
