<svg width="112" height="20" viewBox="0 0 112 20" fill="none" xmlns="http://www.w3.org/2000/svg">
<path d="M0 0H106C109.314 0 112 2.68629 112 6V14C112 17.3137 109.314 20 106 20H0V0Z" fill="#1F1E26"/>
<path d="M14.088 12.752C14.088 13.4453 13.9067 14.0587 13.544 14.592C13.1813 15.1253 12.6587 15.5413 11.976 15.84C11.304 16.128 10.504 16.272 9.576 16.272C7.74133 16.272 6.28 15.7387 5.192 14.672L6.52 13.2C7.36267 13.9467 8.36 14.32 9.512 14.32C10.0667 14.32 10.5093 14.2027 10.84 13.968C11.1813 13.7227 11.352 13.3867 11.352 12.96C11.352 12.5547 11.208 12.24 10.92 12.016C10.6427 11.7813 10.12 11.5467 9.352 11.312C8.05067 10.9173 7.128 10.4533 6.584 9.92C6.04 9.38667 5.768 8.69867 5.768 7.856C5.768 7.19467 5.94933 6.61867 6.312 6.128C6.68533 5.63733 7.18667 5.264 7.816 5.008C8.456 4.752 9.16533 4.624 9.944 4.624C11.576 4.624 12.8987 5.104 13.912 6.064L12.68 7.488C12.3067 7.17867 11.9013 6.94933 11.464 6.8C11.0373 6.64 10.5947 6.56 10.136 6.56C9.624 6.56 9.21867 6.656 8.92 6.848C8.632 7.02933 8.488 7.296 8.488 7.648C8.488 7.88267 8.552 8.08 8.68 8.24C8.81867 8.4 9.04267 8.54933 9.352 8.688C9.66133 8.82667 10.1253 8.992 10.744 9.184C11.8747 9.52533 12.712 9.968 13.256 10.512C13.8107 11.0453 14.088 11.792 14.088 12.752ZM20.4178 7.216C21.4844 7.216 22.2684 7.61067 22.7698 8.4C23.2711 9.17867 23.5218 10.288 23.5218 11.728C23.5218 12.6027 23.3884 13.3867 23.1218 14.08C22.8658 14.7627 22.4924 15.3013 22.0018 15.696C21.5111 16.08 20.9298 16.272 20.2578 16.272C19.4364 16.272 18.7644 15.9787 18.2418 15.392V19.28L15.7138 19.552V7.504H17.9538L18.0658 8.448C18.3964 8.032 18.7644 7.72267 19.1698 7.52C19.5858 7.31733 20.0018 7.216 20.4178 7.216ZM19.6338 9.088C19.1004 9.088 18.6364 9.41867 18.2418 10.08V13.664C18.4231 13.92 18.6098 14.112 18.8018 14.24C19.0044 14.3573 19.2338 14.416 19.4898 14.416C19.9591 14.416 20.3111 14.208 20.5458 13.792C20.7911 13.3653 20.9138 12.688 20.9138 11.76C20.9138 10.7573 20.8071 10.064 20.5938 9.68C20.3804 9.28533 20.0604 9.088 19.6338 9.088ZM32.4595 13.552C32.4595 13.8613 32.5022 14.0907 32.5875 14.24C32.6728 14.3893 32.8168 14.5013 33.0195 14.576L32.4915 16.24C31.9795 16.1867 31.5528 16.0747 31.2115 15.904C30.8702 15.7227 30.6035 15.4613 30.4115 15.12C30.0915 15.4933 29.6862 15.7813 29.1955 15.984C28.7048 16.176 28.1822 16.272 27.6275 16.272C26.7528 16.272 26.0542 16.0267 25.5315 15.536C25.0088 15.0347 24.7475 14.3893 24.7475 13.6C24.7475 12.6827 25.1102 11.9733 25.8355 11.472C26.5608 10.96 27.5795 10.704 28.8915 10.704H30.0275V10.4C30.0275 9.52533 29.4675 9.088 28.3475 9.088C28.0595 9.088 27.6968 9.13067 27.2595 9.216C26.8328 9.29067 26.4168 9.39733 26.0115 9.536L25.4355 7.856C25.9795 7.65333 26.5448 7.49867 27.1315 7.392C27.7288 7.27467 28.2675 7.216 28.7475 7.216C31.2222 7.216 32.4595 8.21867 32.4595 10.224V13.552ZM28.4915 14.464C28.7795 14.464 29.0675 14.384 29.3555 14.224C29.6542 14.0533 29.8782 13.824 30.0275 13.536V12.144H29.4035C28.0382 12.144 27.3555 12.5707 27.3555 13.424C27.3555 13.7547 27.4515 14.0107 27.6435 14.192C27.8462 14.3733 28.1288 14.464 28.4915 14.464ZM39.4133 14.272C39.7333 14.272 40.0426 14.2133 40.3413 14.096C40.6399 13.968 40.9599 13.7867 41.3013 13.552L42.4213 15.152C42.0159 15.4933 41.5466 15.7653 41.0133 15.968C40.4799 16.1707 39.8986 16.272 39.2693 16.272C38.3626 16.272 37.5786 16.0853 36.9173 15.712C36.2666 15.3387 35.7653 14.816 35.4133 14.144C35.0613 13.472 34.8853 12.6933 34.8853 11.808C34.8853 10.9227 35.0666 10.1333 35.4293 9.44C35.7919 8.74667 36.3039 8.20267 36.9653 7.808C37.6373 7.41333 38.4213 7.216 39.3173 7.216C39.9466 7.216 40.5119 7.30667 41.0133 7.488C41.5146 7.65867 41.9839 7.92533 42.4213 8.288L41.3333 9.808C40.7146 9.38133 40.0799 9.168 39.4293 9.168C38.1599 9.168 37.5253 10.048 37.5253 11.808C37.5253 12.6933 37.6906 13.328 38.0213 13.712C38.3519 14.0853 38.8159 14.272 39.4133 14.272ZM46.687 12.496C46.847 13.7867 47.5297 14.432 48.735 14.432C49.4603 14.432 50.1857 14.1973 50.911 13.728L51.919 15.104C51.503 15.4667 51.007 15.7547 50.431 15.968C49.855 16.1707 49.2203 16.272 48.527 16.272C47.5777 16.272 46.7723 16.0853 46.111 15.712C45.4497 15.328 44.9483 14.8 44.607 14.128C44.2763 13.4453 44.111 12.656 44.111 11.76C44.111 10.9067 44.271 10.1387 44.591 9.456C44.9217 8.76267 45.3963 8.21867 46.015 7.824C46.6443 7.41867 47.391 7.216 48.255 7.216C49.0657 7.216 49.7697 7.392 50.367 7.744C50.9643 8.08533 51.423 8.58667 51.743 9.248C52.0737 9.89867 52.239 10.6773 52.239 11.584C52.239 11.936 52.223 12.24 52.191 12.496H46.687ZM48.255 8.912C47.7963 8.912 47.4283 9.08267 47.151 9.424C46.8737 9.75467 46.7083 10.2667 46.655 10.96H49.775C49.7537 9.59467 49.247 8.912 48.255 8.912ZM62.1528 10.4C62.1528 14.1333 60.3661 16 56.7928 16H53.8008V4.912H56.6008C58.2754 4.912 59.6194 5.30667 60.6328 6.096C61.6461 6.87467 62.1528 8.30933 62.1528 10.4ZM59.4488 10.4C59.4488 9.024 59.2354 8.08533 58.8088 7.584C58.3821 7.072 57.7741 6.816 56.9848 6.816H56.4248V14.096H56.9848C57.7848 14.096 58.3928 13.824 58.8088 13.28C59.2354 12.7253 59.4488 11.7653 59.4488 10.4ZM67.3625 7.216C68.6532 7.216 69.6612 7.62667 70.3865 8.448C71.1225 9.25867 71.4905 10.352 71.4905 11.728C71.4905 13.1573 71.1278 14.272 70.4025 15.072C69.6772 15.872 68.6638 16.272 67.3625 16.272C66.0612 16.272 65.0478 15.8773 64.3225 15.088C63.5972 14.288 63.2345 13.1733 63.2345 11.744C63.2345 10.8373 63.3945 10.048 63.7145 9.376C64.0452 8.69333 64.5198 8.16533 65.1385 7.792C65.7678 7.408 66.5092 7.216 67.3625 7.216ZM67.3625 9.088C66.8398 9.088 66.4558 9.30133 66.2105 9.728C65.9652 10.144 65.8425 10.816 65.8425 11.744C65.8425 12.6827 65.9652 13.3653 66.2105 13.792C66.4558 14.208 66.8398 14.416 67.3625 14.416C67.8852 14.416 68.2692 14.2027 68.5145 13.776C68.7598 13.3493 68.8825 12.6667 68.8825 11.728C68.8825 10.8107 68.7598 10.144 68.5145 9.728C68.2692 9.30133 67.8852 9.088 67.3625 9.088ZM77.7883 14.272C78.1083 14.272 78.4176 14.2133 78.7163 14.096C79.0149 13.968 79.3349 13.7867 79.6763 13.552L80.7963 15.152C80.3909 15.4933 79.9216 15.7653 79.3883 15.968C78.8549 16.1707 78.2736 16.272 77.6443 16.272C76.7376 16.272 75.9536 16.0853 75.2923 15.712C74.6416 15.3387 74.1403 14.816 73.7883 14.144C73.4363 13.472 73.2603 12.6933 73.2603 11.808C73.2603 10.9227 73.4416 10.1333 73.8043 9.44C74.1669 8.74667 74.6789 8.20267 75.3403 7.808C76.0123 7.41333 76.7963 7.216 77.6923 7.216C78.3216 7.216 78.8869 7.30667 79.3883 7.488C79.8896 7.65867 80.3589 7.92533 80.7963 8.288L79.7083 9.808C79.0896 9.38133 78.4549 9.168 77.8043 9.168C76.5349 9.168 75.9003 10.048 75.9003 11.808C75.9003 12.6933 76.0656 13.328 76.3963 13.712C76.7269 14.0853 77.1909 14.272 77.7883 14.272ZM85.398 16H82.87V4.128L85.398 3.856V16ZM88.134 11.264L91.158 16H88.278L85.494 11.344L88.294 7.504H90.934L88.134 11.264Z" fill="#D0D0D5"/>
<g clip-path="url(#clip0_170_19)">
<path d="M106.2 3.01682H97.8C96.26 3.01682 95 4.27682 95 5.81682V14.2C95 15.74 96.26 17 97.8 17H106.2C107.74 17 109 15.74 109 14.2V5.81682C109 4.27682 107.74 3.01682 106.2 3.01682Z" fill="#D0D0D5"/>
<path d="M100.132 7.64521C100.312 7.54441 100.606 7.54441 100.785 7.64521L108.087 11.792C108.266 11.8928 108.266 12.0608 108.087 12.1616L100.785 16.2832C100.606 16.384 100.289 16.468 100.085 16.468H98.8304C98.6232 16.468 98.6036 16.384 98.7828 16.2832L106.091 12.1616C106.27 12.0608 106.27 11.8928 106.091 11.792L99.788 8.20801C99.6088 8.10721 99.6088 7.93921 99.788 7.83841L100.132 7.64521Z" fill="#057893"/>
<path d="M103.926 3.53201C103.719 3.53201 103.406 3.61041 103.226 3.71121L95.924 7.85521C95.7448 7.95601 95.7448 8.12121 95.924 8.22201L103.224 12.3408C103.403 12.4416 103.697 12.4416 103.876 12.3408L104.22 12.1448C104.4 12.044 104.4 11.8788 104.22 11.7752L97.9176 8.21921C97.7384 8.11841 97.7384 7.95321 97.9176 7.84961L105.237 3.71121C105.416 3.61041 105.394 3.53201 105.189 3.53201H103.926Z" fill="#07ACD2"/>
</g>
<defs>
<clipPath id="clip0_170_19">
<rect width="14" height="14" fill="white" transform="translate(95 3)"/>
</clipPath>
</defs>
</svg>
