<svg width="146" height="54" viewBox="0 0 146 54" fill="none" xmlns="http://www.w3.org/2000/svg">
<g clip-path="url(#clip0_22_3)">
<g filter="url(#filter0_d_22_3)">
<rect x="8" y="6" width="130" height="38" rx="7" fill="#1F1E26"/>
</g>
<g filter="url(#filter1_d_22_3)">
<path d="M16.5 36L24.98 19.104H17.46L18.42 13.6H34.356L25.652 30.496H33.396L32.436 36H16.5ZM34.6638 19.104L35.6238 13.6H49.5118V19.104H45.2878V36.032H39.2078V19.104H34.6638ZM56.8763 13.6V20.672C57.4523 19.968 58.1456 19.4133 58.9563 19.008C59.7669 18.6027 60.6736 18.4 61.6763 18.4C62.5936 18.4 63.4043 18.5707 64.1083 18.912C64.8123 19.2533 65.4096 19.7227 65.9003 20.32C66.3909 20.896 66.7643 21.5893 67.0203 22.4C67.2763 23.1893 67.4043 24.032 67.4043 24.928V36H61.6443V26.624C61.6443 25.728 61.4096 25.0453 60.9403 24.576C60.4923 24.0853 59.9483 23.84 59.3083 23.84C58.6256 23.84 58.0496 24.096 57.5803 24.608C57.1109 25.0987 56.8763 25.7493 56.8763 26.56V36H51.1163V13.6H56.8763ZM79.991 24.544C79.8203 24.352 79.6283 24.1707 79.415 24C79.2017 23.872 78.9457 23.7547 78.647 23.648C78.3697 23.5413 78.039 23.488 77.655 23.488C77.1217 23.488 76.6523 23.5947 76.247 23.808C75.8417 24.0213 75.511 24.3093 75.255 24.672C74.999 25.0347 74.807 25.4507 74.679 25.92C74.551 26.368 74.487 26.8373 74.487 27.328L79.991 24.544ZM68.855 27.424C68.855 26.1867 69.079 25.024 69.527 23.936C69.9963 22.8267 70.6257 21.8667 71.415 21.056C72.2043 20.224 73.1323 19.5733 74.199 19.104C75.287 18.6133 76.439 18.368 77.655 18.368C78.807 18.368 79.8737 18.5813 80.855 19.008C81.8363 19.4133 82.679 19.9467 83.383 20.608C84.087 21.248 84.6417 21.9733 85.047 22.784C85.4523 23.5947 85.655 24.3947 85.655 25.184L75.799 30.208C76.5243 30.7627 77.4417 31.04 78.551 31.04C79.3617 31.04 80.1083 30.912 80.791 30.656C81.495 30.3787 82.103 30.0907 82.615 29.792C83.2123 29.4293 83.7563 29.0133 84.247 28.544V34.016C83.8417 34.4427 83.3403 34.8267 82.743 35.168C82.2523 35.4667 81.6443 35.744 80.919 36C80.1937 36.2347 79.3403 36.352 78.359 36.352C77.1217 36.352 75.927 36.128 74.775 35.68C73.6443 35.232 72.6417 34.6133 71.767 33.824C70.8923 33.0347 70.1883 32.096 69.655 31.008C69.1217 29.92 68.855 28.7253 68.855 27.424ZM111.512 36H105.752V26.144C105.752 25.3973 105.571 24.832 105.208 24.448C104.846 24.0427 104.398 23.84 103.864 23.84C103.31 23.84 102.851 24.0533 102.488 24.48C102.126 24.8853 101.944 25.4187 101.944 26.08V36H96.1843V26.144C96.1843 25.3973 96.0029 24.832 95.6403 24.448C95.2776 24.0427 94.8296 23.84 94.2963 23.84C93.7416 23.84 93.2829 24.0533 92.9203 24.48C92.5576 24.8853 92.3763 25.4187 92.3763 26.08V36H86.6163V18.72H92.3763V20.672C92.9096 19.968 93.5496 19.4133 94.2963 19.008C95.0429 18.6027 95.8856 18.4 96.8243 18.4C97.8909 18.4 98.7976 18.656 99.5443 19.168C100.291 19.68 100.867 20.3733 101.272 21.248C101.806 20.3733 102.488 19.68 103.32 19.168C104.174 18.656 105.144 18.4 106.232 18.4C107.064 18.4 107.811 18.56 108.472 18.88C109.134 19.2 109.688 19.6373 110.136 20.192C110.584 20.7253 110.926 21.3653 111.16 22.112C111.395 22.8373 111.512 23.616 111.512 24.448V36ZM124.085 24.544C123.914 24.352 123.722 24.1707 123.509 24C123.295 23.872 123.039 23.7547 122.741 23.648C122.463 23.5413 122.133 23.488 121.749 23.488C121.215 23.488 120.746 23.5947 120.341 23.808C119.935 24.0213 119.605 24.3093 119.349 24.672C119.093 25.0347 118.901 25.4507 118.773 25.92C118.645 26.368 118.581 26.8373 118.581 27.328L124.085 24.544ZM112.949 27.424C112.949 26.1867 113.173 25.024 113.621 23.936C114.09 22.8267 114.719 21.8667 115.509 21.056C116.298 20.224 117.226 19.5733 118.293 19.104C119.381 18.6133 120.533 18.368 121.749 18.368C122.901 18.368 123.967 18.5813 124.949 19.008C125.93 19.4133 126.773 19.9467 127.477 20.608C128.181 21.248 128.735 21.9733 129.141 22.784C129.546 23.5947 129.749 24.3947 129.749 25.184L119.893 30.208C120.618 30.7627 121.535 31.04 122.645 31.04C123.455 31.04 124.202 30.912 124.885 30.656C125.589 30.3787 126.197 30.0907 126.709 29.792C127.306 29.4293 127.85 29.0133 128.341 28.544V34.016C127.935 34.4427 127.434 34.8267 126.837 35.168C126.346 35.4667 125.738 35.744 125.013 36C124.287 36.2347 123.434 36.352 122.453 36.352C121.215 36.352 120.021 36.128 118.869 35.68C117.738 35.232 116.735 34.6133 115.861 33.824C114.986 33.0347 114.282 32.096 113.749 31.008C113.215 29.92 112.949 28.7253 112.949 27.424Z" fill="#D0D0D5"/>
</g>
</g>
<defs>
<filter id="filter0_d_22_3" x="-4" y="-4" width="154" height="62" filterUnits="userSpaceOnUse" color-interpolation-filters="sRGB">
<feFlood flood-opacity="0" result="BackgroundImageFix"/>
<feColorMatrix in="SourceAlpha" type="matrix" values="0 0 0 0 0 0 0 0 0 0 0 0 0 0 0 0 0 0 127 0" result="hardAlpha"/>
<feOffset dy="2"/>
<feGaussianBlur stdDeviation="6"/>
<feComposite in2="hardAlpha" operator="out"/>
<feColorMatrix type="matrix" values="0 0 0 0 0 0 0 0 0 0 0 0 0 0 0 0 0 0 0.33 0"/>
<feBlend mode="normal" in2="BackgroundImageFix" result="effect1_dropShadow_22_3"/>
<feBlend mode="normal" in="SourceGraphic" in2="effect1_dropShadow_22_3" result="shape"/>
</filter>
<filter id="filter1_d_22_3" x="10.5" y="9.60001" width="125.249" height="34.752" filterUnits="userSpaceOnUse" color-interpolation-filters="sRGB">
<feFlood flood-opacity="0" result="BackgroundImageFix"/>
<feColorMatrix in="SourceAlpha" type="matrix" values="0 0 0 0 0 0 0 0 0 0 0 0 0 0 0 0 0 0 127 0" result="hardAlpha"/>
<feOffset dy="2"/>
<feGaussianBlur stdDeviation="3"/>
<feComposite in2="hardAlpha" operator="out"/>
<feColorMatrix type="matrix" values="0 0 0 0 0 0 0 0 0 0 0 0 0 0 0 0 0 0 0.25 0"/>
<feBlend mode="normal" in2="BackgroundImageFix" result="effect1_dropShadow_22_3"/>
<feBlend mode="normal" in="SourceGraphic" in2="effect1_dropShadow_22_3" result="shape"/>
</filter>
<clipPath id="clip0_22_3">
<rect width="146" height="54" fill="white" transform="matrix(1 0 0 -1 0 54)"/>
</clipPath>
</defs>
</svg>
