<svg width="368" height="158" viewBox="0 0 368 158" fill="none" xmlns="http://www.w3.org/2000/svg">
<g filter="url(#filter0_d_22_4)">
<rect x="24" y="16" width="320" height="110" rx="24" fill="#1F1E26"/>
</g>
<g filter="url(#filter1_d_22_4)">
<path d="M42.4375 97L63.6375 54.76H44.8375L47.2375 41H87.0775L65.3175 83.24H84.6775L82.2775 97H42.4375ZM87.8469 54.76L90.2469 41H124.967V54.76H114.407V97.08H99.2069V54.76H87.8469ZM143.378 41V58.68C144.818 56.92 146.551 55.5333 148.578 54.52C150.605 53.5067 152.871 53 155.378 53C157.671 53 159.698 53.4267 161.458 54.28C163.218 55.1333 164.711 56.3067 165.938 57.8C167.165 59.24 168.098 60.9733 168.738 63C169.378 64.9733 169.698 67.08 169.698 69.32V97H155.298V73.56C155.298 71.32 154.711 69.6133 153.538 68.44C152.418 67.2133 151.058 66.6 149.458 66.6C147.751 66.6 146.311 67.24 145.138 68.52C143.965 69.7467 143.378 71.3733 143.378 73.4V97H128.978V41H143.378ZM201.165 68.36C200.738 67.88 200.258 67.4267 199.725 67C199.192 66.68 198.552 66.3867 197.805 66.12C197.112 65.8533 196.285 65.72 195.325 65.72C193.992 65.72 192.818 65.9867 191.805 66.52C190.792 67.0533 189.965 67.7733 189.325 68.68C188.685 69.5867 188.205 70.6267 187.885 71.8C187.565 72.92 187.405 74.0933 187.405 75.32L201.165 68.36ZM173.325 75.56C173.325 72.4667 173.885 69.56 175.005 66.84C176.178 64.0667 177.752 61.6667 179.725 59.64C181.698 57.56 184.018 55.9333 186.685 54.76C189.405 53.5333 192.285 52.92 195.325 52.92C198.205 52.92 200.872 53.4533 203.325 54.52C205.778 55.5333 207.885 56.8667 209.645 58.52C211.405 60.12 212.792 61.9333 213.805 63.96C214.818 65.9867 215.325 67.9867 215.325 69.96L190.685 82.52C192.498 83.9067 194.792 84.6 197.565 84.6C199.592 84.6 201.458 84.28 203.165 83.64C204.925 82.9467 206.445 82.2267 207.725 81.48C209.218 80.5733 210.578 79.5333 211.805 78.36V92.04C210.792 93.1067 209.538 94.0667 208.045 94.92C206.818 95.6667 205.298 96.36 203.485 97C201.672 97.5867 199.538 97.88 197.085 97.88C193.992 97.88 191.005 97.32 188.125 96.2C185.298 95.08 182.792 93.5333 180.605 91.56C178.418 89.5867 176.658 87.24 175.325 84.52C173.992 81.8 173.325 78.8133 173.325 75.56ZM279.968 97H265.568V72.36C265.568 70.4933 265.115 69.08 264.208 68.12C263.301 67.1067 262.181 66.6 260.848 66.6C259.461 66.6 258.315 67.1333 257.408 68.2C256.501 69.2133 256.048 70.5467 256.048 72.2V97H241.648V72.36C241.648 70.4933 241.195 69.08 240.288 68.12C239.381 67.1067 238.261 66.6 236.928 66.6C235.541 66.6 234.395 67.1333 233.488 68.2C232.581 69.2133 232.128 70.5467 232.128 72.2V97H217.728V53.8H232.128V58.68C233.461 56.92 235.061 55.5333 236.928 54.52C238.795 53.5067 240.901 53 243.248 53C245.915 53 248.181 53.64 250.048 54.92C251.915 56.2 253.355 57.9333 254.368 60.12C255.701 57.9333 257.408 56.2 259.488 54.92C261.621 53.64 264.048 53 266.768 53C268.848 53 270.715 53.4 272.368 54.2C274.021 55 275.408 56.0933 276.528 57.48C277.648 58.8133 278.501 60.4133 279.088 62.28C279.675 64.0933 279.968 66.04 279.968 68.12V97ZM311.399 68.36C310.973 67.88 310.493 67.4267 309.959 67C309.426 66.68 308.786 66.3867 308.039 66.12C307.346 65.8533 306.519 65.72 305.559 65.72C304.226 65.72 303.053 65.9867 302.039 66.52C301.026 67.0533 300.199 67.7733 299.559 68.68C298.919 69.5867 298.439 70.6267 298.119 71.8C297.799 72.92 297.639 74.0933 297.639 75.32L311.399 68.36ZM283.559 75.56C283.559 72.4667 284.119 69.56 285.239 66.84C286.413 64.0667 287.986 61.6667 289.959 59.64C291.933 57.56 294.253 55.9333 296.919 54.76C299.639 53.5333 302.519 52.92 305.559 52.92C308.439 52.92 311.106 53.4533 313.559 54.52C316.013 55.5333 318.119 56.8667 319.879 58.52C321.639 60.12 323.026 61.9333 324.039 63.96C325.053 65.9867 325.559 67.9867 325.559 69.96L300.919 82.52C302.733 83.9067 305.026 84.6 307.799 84.6C309.826 84.6 311.693 84.28 313.399 83.64C315.159 82.9467 316.679 82.2267 317.959 81.48C319.453 80.5733 320.813 79.5333 322.039 78.36V92.04C321.026 93.1067 319.773 94.0667 318.279 94.92C317.053 95.6667 315.533 96.36 313.719 97C311.906 97.5867 309.773 97.88 307.319 97.88C304.226 97.88 301.239 97.32 298.359 96.2C295.533 95.08 293.026 93.5333 290.839 91.56C288.653 89.5867 286.893 87.24 285.559 84.52C284.226 81.8 283.559 78.8133 283.559 75.56Z" fill="#D0D0D5"/>
</g>
<defs>
<filter id="filter0_d_22_4" x="0" y="0" width="368" height="158" filterUnits="userSpaceOnUse" color-interpolation-filters="sRGB">
<feFlood flood-opacity="0" result="BackgroundImageFix"/>
<feColorMatrix in="SourceAlpha" type="matrix" values="0 0 0 0 0 0 0 0 0 0 0 0 0 0 0 0 0 0 127 0" result="hardAlpha"/>
<feOffset dy="8"/>
<feGaussianBlur stdDeviation="12"/>
<feComposite in2="hardAlpha" operator="out"/>
<feColorMatrix type="matrix" values="0 0 0 0 0 0 0 0 0 0 0 0 0 0 0 0 0 0 0.5 0"/>
<feBlend mode="normal" in2="BackgroundImageFix" result="effect1_dropShadow_22_4"/>
<feBlend mode="normal" in="SourceGraphic" in2="effect1_dropShadow_22_4" result="shape"/>
</filter>
<filter id="filter1_d_22_4" x="30.4375" y="33" width="307.122" height="80.88" filterUnits="userSpaceOnUse" color-interpolation-filters="sRGB">
<feFlood flood-opacity="0" result="BackgroundImageFix"/>
<feColorMatrix in="SourceAlpha" type="matrix" values="0 0 0 0 0 0 0 0 0 0 0 0 0 0 0 0 0 0 127 0" result="hardAlpha"/>
<feOffset dy="4"/>
<feGaussianBlur stdDeviation="6"/>
<feComposite in2="hardAlpha" operator="out"/>
<feColorMatrix type="matrix" values="0 0 0 0 0 0 0 0 0 0 0 0 0 0 0 0 0 0 0.33 0"/>
<feBlend mode="normal" in2="BackgroundImageFix" result="effect1_dropShadow_22_4"/>
<feBlend mode="normal" in="SourceGraphic" in2="effect1_dropShadow_22_4" result="shape"/>
</filter>
</defs>
</svg>
